# AST/ASF file generated using VICON BodyLanguage
# -----------------------------------------------
:version 1.10
:name VICON
:units
  mass 1.0
  length 0.45
  angle deg
:documentation
   .ast/.asf automatically generated from VICON data using
   VICON BodyBuilder and BodyLanguage model FoxedUp or BRILLIANT.MOD
:root
   order TX TY TZ RX RY RZ
   axis XYZ
   position 0 0 0  
   orientation 0 0 0 
:bonedata
  begin
     id 1 
     name lhipjoint
     direction 0.623415 -0.642378 0.445763 
     length 2.49859 
     axis 0 0 0  XYZ
  end
  begin
     id 2 
     name lfemur
     direction 0.34202 -0.939693 0  
     length 6.69689  
     axis 0 0 20  XYZ
    dof rx ry rz
    limits (-160.0 20.0)
           (-70.0 70.0)
           (-60.0 70.0)
  end
  begin
     id 3 
     name ltibia
     direction 0.34202 -0.939693 0   
     length 7.37574   
     axis 0 0 20   XYZ
    dof rx
    limits (-10.0 170.0)
  end
  begin
     id 4 
     name lfoot
     direction 0.084323 -0.231675 0.969132   
     length 2.09111   
     axis -90 7.62852e-016 20   XYZ
    dof rx rz
    limits (-45.0 90.0)
           (-70.0 20.0)
  end
  begin
     id 5 
     name ltoes
     direction 1.5357e-011 -4.21957e-011 1   
     length 1.04989   
     axis -90 7.62852e-016 20   XYZ
    dof rx
    limits (-90.0 20.0)
  end
  begin
     id 6 
     name rhipjoint
     direction -0.605402 -0.653903 0.45376   
     length 2.45455  
     axis 0 0 0  XYZ 
  end
  begin
     id 7 
     name rfemur
     direction -0.34202 -0.939693 0   
     length 6.64523   
     axis 0 0 -20   XYZ
    dof rx ry rz
    limits (-160.0 20.0)
           (-70.0 70.0)
           (-70.0 60.0)
  end
  begin
     id 8 
     name rtibia
     direction -0.34202 -0.939693 0   
     length 7.3339   
     axis 0 0 -20   XYZ
    dof rx
    limits (-10.0 170.0)
 end
 begin
     id 9 
     name rfoot
     direction -0.120854 -0.332043 0.93549   
     length 2.23135  
     axis -90 -7.62852e-016 -20   XYZ
    dof rx rz
    limits (-45.0 90.0)
           (-20.0 70.0)
  end
  begin
     id 10 
     name rtoes
     direction -1.53563e-011 -4.21914e-011 1   
     length 1.10614   
     axis -90 -7.62852e-016 -20   XYZ
    dof rx
    limits (-90.0 20.0)
  end
  begin
     id 11 
     name lowerback
     direction 0.0319682 0.998615 -0.0417941   
     length 2.02718   
     axis 0 0 0   XYZ
    dof rx ry rz
    limits (-20.0 45.0)
           (-30.0 30.0)
           (-30.0 30.0)
  end
  begin
     id 12 
     name upperback
     direction 7.63181e-005 0.995808 0.0914691   
     length 1.97539   
     axis 0 0 0   XYZ
    dof rx ry rz
    limits (-20.0 45.0)
           (-30.0 30.0)
           (-30.0 30.0)
  end
  begin
     id 13 
     name thorax
     direction -0.016423 0.993627 0.111514   
     length 2.00349   
     axis 0 0 0   XYZ
    dof rx ry rz
    limits (-20.0 45.0)
           (-30.0 30.0)
           (-30.0 30.0)
  end
  begin
     id 14 
     name lowerneck
     direction -0.174763 0.981668 -0.0760716   
     length 1.71436   
     axis 0 0 0   XYZ
    dof rx ry rz
    limits (-20.0 45.0)
           (-30.0 30.0)
           (-30.0 30.0)
  end
  begin
     id 15 
     name upperneck
     direction 0.345458 0.934587 -0.0848868   
     length 1.72805   
     axis 0 0 0   XYZ
    dof rx ry rz
    limits (-20.0 45.0)
           (-30.0 30.0)
           (-30.0 30.0)
  end
  begin
     id 16
     name head
     direction 0.13001 0.989848 -0.0574291  
     length 1.767  
     axis 0 0 0   XYZ
    dof rx ry rz
    limits (-20.0 45.0)
           (-30.0 30.0)
           (-30.0 30.0)
  end
  begin
     id 17 
     name lclavicle
     direction 0.952951 0.290122 0.0878234  
     length 3.54654  
     axis 0 0 0   XYZ
    dof ry rz
    limits (-20.0 10.0)
           (0.0 20.0)
  end
  begin
     id 18 
     name lhumerus
     direction 1 -4.48957e-011 -4.56525e-028   
     length 5.19807   
     axis 180 -30 -90   XYZ
    dof rx ry rz
    limits (-60.0 90.0)
           (-90.0 90.0)
           (-90.0 90.0)
  end
  begin
     id 19
     name lradius
     direction 1 -4.48979e-011 -2.0317e-027   
     length 3.0937   
     axis 180 -30 -90   XYZ
    dof rx
    limits (-10.0 170.0)
  end
  begin
     id 20
     name lwrist
     direction 1 -4.48953e-011 -3.05809e-027   
     length 1.54685   
     axis 8.48514e-016 90 90   XYZ
    dof ry
    limits (-180.0 0.0)
 end
  begin
     id 21 
     name lhand
     direction 1 -4.48952e-011 -6.11639e-027   
     length 0.672632   
     axis 3.9013e-015 90 90   XYZ
    dof rx rz
    limits (-90.0 90.0)
           (-45.0 45.0)
  end
  begin
     id 22 
     name lfingers
     direction 1 -4.48925e-011 -1.22426e-026   
     length 0.542293   
     axis 7.80276e-015 90 90   XYZ
    dof rx
    limits (0.0 90.0)
  end
  begin
     id 23
     name lthumb
     direction 0.707107 -6.3486e-011 0.707107   
     length 0.778628   
     axis -90 45 5.37419e-014   XYZ
    dof rx rz
    limits (-45.0 45.0)
           (-45.0 45.0)
  end
  begin
     id 24 
     name rclavicle
     direction -0.960732 0.273675 -0.0457849   
     length 3.52079  
     axis 0 0 0   XYZ 
    dof ry rz
    limits (-10.0 20.0)
           (-20.0 0.0)
  end
  begin
     id 25 
     name rhumerus
     direction -1 -4.48976e-011 -1.63613e-027  
     length 5.45222   
     axis 180 30 90   XYZ
    dof rx ry rz
    limits (-90.0 60.0)
           (-90.0 90.0)
           (-90.0 90.0)
  end
  begin
     id 26 
     name rradius
     direction -1 -4.48957e-011 -7.00033e-028   
     length 3.01284   
     axis 180 30 90   XYZ
    dof rx
    limits (-10.0 170.0)
  end
  begin
     id 27 
     name rwrist
     direction -1 -4.48983e-011 -3.05543e-027   
     length 1.50642   
     axis 8.48514e-016 -90 -90   XYZ
    dof ry
    limits (-180.0 0.0)
  end
  begin
     id 28
     name rhand
     direction -1 -4.48984e-011 -6.11072e-027   
     length 0.622296   
     axis 3.9013e-015 -90 -90   XYZ
    dof rx rz
    limits (-90.0 90.0)
           (-45.0 45.0)
  end
  begin
     id 29
     name rfingers
     direction -1 -4.48865e-011 -1.22637e-026   
     length 0.501711   
     axis 7.80276e-015 -90 -90   XYZ
    dof rx
    limits (0.0 90.0)
  end
  begin
     id 30
     name rthumb
     direction -0.707107 -6.34932e-011 0.707107   
     length 0.72036   
     axis -90 -45 -5.37419e-014   XYZ
    dof rx rz
    limits (-45.0 45.0)
           (-45.0 45.0)
  end
:hierarchy
  begin
    root lhipjoint rhipjoint lowerback
    lhipjoint lfemur
    lfemur ltibia
    ltibia lfoot
    lfoot ltoes
    rhipjoint rfemur
    rfemur rtibia
    rtibia rfoot
    rfoot rtoes
    lowerback upperback
    upperback thorax
    thorax lowerneck lclavicle rclavicle
    lowerneck upperneck
    upperneck head
    lclavicle lhumerus
    lhumerus lradius
    lradius lwrist
    lwrist lhand lthumb
    lhand lfingers
    rclavicle rhumerus
    rhumerus rradius
    rradius rwrist
    rwrist rhand rthumb
    rhand rfingers
  end

#!OML:ASF H:\Not Pregnant\Project 1\Capture day 1\Session 1\non-pregnant.ASF
:FULLY-SPECIFIED
:DEGREES
289
root 2.08971 4.88599 21.6956 -20.1765 -48.1135 23.8689
lowerback 41.7134 -1.24612 2.24352
upperback 10.1895 -0.897075 3.85764
thorax -8.49538 -0.794103 3.38566
lowerneck 20.7475 -10.6005 -29.1667
upperneck -21.3631 -16.559 38.6907
head -2.79099 -10.6343 20.4607
rclavicle 1.27222e-014 2.54444e-014
rhumerus -18.3638 -24.11 -63.2188
rradius 34.2405
rwrist 52.4829
rhand -65.8466 -14.6261
rfingers 7.12502
rthumb -37.6981 -40.5068
lclavicle 1.27222e-014 2.54444e-014
lhumerus 35.9622 -15.6362 21.8983
lradius 59.5045
lwrist 41.1261
lhand 6.2252 -14.9029
lfingers 7.12502
lthumb 31.5379 12.3946
rfemur -114.159 37.0739 47.1959
rtibia 152.361
rfoot -10.7793 -29.3424
rtoes -13.4752
lfemur -121.477 31.5553 -28.2885
ltibia 133.887
lfoot -31.2403 -25.8133
ltoes -37.138
290
root 2.06603 4.85085 21.629 -20.231 -47.6954 23.4556
lowerback 41.847 -1.22135 1.68791
upperback 10.1216 -1.04238 4.19448
thorax -8.6086 -0.868327 4.10217
lowerneck 20.6424 -10.3422 -29.6199
upperneck -20.765 -16.4381 38.4012
head -2.65656 -10.4919 20.354
rclavicle 2.38542e-014 -4.77083e-015
rhumerus -18.2078 -23.6246 -63.4161
rradius 34.2178
rwrist 52.6226
rhand -65.902 -11.5399
rfingers 7.12502
rthumb -37.7504 -37.4066
lclavicle 2.38542e-014 -4.77083e-015
lhumerus 35.2496 -14.6812 22.8498
lradius 60.1303
lwrist 43.6719
lhand 6.96588 -15.8612
lfingers 7.12502
lthumb 32.2432 11.2957
rfemur -113.473 36.9545 48.087
rtibia 151.994
rfoot -10.319 -29.6426
rtoes -13.4637
lfemur -121.417 31.7657 -27.9475
ltibia 133.707
lfoot -31.0883 -25.7736
ltoes -37.0038
291
root 2.04299 4.8137 21.565 -20.2586 -47.3029 23.0162
lowerback 41.8901 -1.22813 1.37183
upperback 10.12 -1.155 4.38099
thorax -8.61792 -0.924796 4.5159
lowerneck 20.4932 -10.2311 -29.7438
upperneck -20.2243 -16.3912 38.143
head -2.53112 -10.4135 20.1804
rclavicle 5.24792e-014 -6.67916e-014
rhumerus -18.0774 -23.78 -63.7113
rradius 34.137
rwrist 53.0098
rhand -65.9119 -6.048
rfingers 7.12502
rthumb -37.7598 -31.9122
lclavicle 5.24792e-014 -6.67916e-014
lhumerus 34.7836 -13.7828 23.5455
lradius 60.8082
lwrist 46.5917
lhand 7.6813 -16.5719
lfingers 7.12502
lthumb 32.924 10.4444
rfemur -112.841 36.8858 48.9337
rtibia 151.665
rfoot -10.0423 -29.8752
rtoes -13.1555
lfemur -121.42 31.9775 -27.613
ltibia 133.549
lfoot -30.9485 -25.761
ltoes -36.9012
292
root 2.02079 4.77474 21.5026 -20.2858 -46.9427 22.5581
lowerback 41.8845 -1.27266 1.10745
upperback 10.154 -1.30272 4.53123
thorax -8.56828 -0.998556 4.87628
lowerneck 20.299 -10.1327 -29.8507
upperneck -19.6686 -16.347 37.8917
head -2.39297 -10.3372 20.0012
rclavicle 1.27222e-014 3.02153e-014
rhumerus -17.8594 -24.1086 -64.0774
rradius 34.0001
rwrist 53.5419
rhand -65.8351 0.746119
rfingers 7.12502
rthumb -37.6872 -25.1375
lclavicle 1.27222e-014 3.02153e-014
lhumerus 34.3126 -12.8689 24.159
lradius 61.4069
lwrist 49.7846
lhand 8.38514 -17.0281
lfingers 7.12502
lthumb 33.5931 9.84502
rfemur -112.21 36.8623 49.7575
rtibia 151.351
rfoot -9.90302 -30.0301
rtoes -12.9702
lfemur -121.452 32.2199 -27.2742
ltibia 133.407
lfoot -30.7723 -25.8024
ltoes -36.7445
293
root 1.99939 4.73512 21.4402 -20.3906 -46.603 22.13
lowerback 41.893 -1.34493 0.853147
upperback 10.2227 -1.49001 4.63548
thorax -8.47886 -1.09224 5.19734
lowerneck 20.0563 -10.0271 -29.9617
upperneck -19.0866 -16.2843 37.665
head -2.24189 -10.2524 19.8341
rclavicle -1.59028e-015 -1.59028e-015
rhumerus -17.5895 -24.4698 -64.5316
rradius 33.8678
rwrist 54.1049
rhand -65.6689 7.78128
rfingers 7.12502
rthumb -37.5301 -18.1443
lclavicle -1.59028e-015 -1.59028e-015
lhumerus 33.8209 -11.932 24.6741
lradius 61.9314
lwrist 53.0939
lhand 9.03137 -17.229
lfingers 7.12502
lthumb 34.2071 9.5086
rfemur -111.486 36.8344 50.5768
rtibia 151.028
rfoot -9.81579 -30.1084
rtoes -13.1185
lfemur -121.418 32.4971 -26.9203
ltibia 133.261
lfoot -30.5499 -25.8873
ltoes -36.4578
294
root 1.97898 4.69505 21.3763 -20.5598 -46.3074 21.6884
lowerback 42.0133 -1.41094 0.620418
upperback 10.284 -1.66201 4.7176
thorax -8.43027 -1.17949 5.48036
lowerneck 19.7966 -9.93271 -30.0338
upperneck -18.4836 -16.2231 37.4469
head -2.08447 -10.1713 19.6628
rclavicle -9.70069e-014 -3.33958e-014
rhumerus -17.3695 -24.7763 -65.0231
rradius 33.7806
rwrist 54.6016
rhand -65.4643 13.5965
rfingers 7.12502
rthumb -37.3367 -12.3801
lclavicle -9.70069e-014 -3.33958e-014
lhumerus 33.3935 -11.0277 25.1124
lradius 62.3386
lwrist 56.4123
lhand 9.59066 -17.1647
lfingers 7.12502
lthumb 34.738 9.45216
rfemur -110.617 36.8028 51.4436
rtibia 150.679
rfoot -9.79206 -30.0994
rtoes -13.6203
lfemur -121.302 32.852 -26.5049
ltibia 133.102
lfoot -30.2191 -26.0927
ltoes -35.9339
295
root 1.95958 4.65767 21.3032 -21.0008 -46.0757 21.3215
lowerback 42.4898 -1.40259 0.296953
upperback 10.3317 -1.78015 4.77884
thorax -8.50388 -1.24322 5.77721
lowerneck 19.5174 -9.84639 -30.0715
upperneck -17.8634 -16.1587 37.259
head -1.91929 -10.0935 19.5005
rclavicle -2.8625e-014 7.31528e-014
rhumerus -17.2188 -24.9322 -65.5659
rradius 33.7745
rwrist 54.9415
rhand -65.2997 17.5009
rfingers 7.12502
rthumb -37.1811 -8.51652
lclavicle -2.8625e-014 7.31528e-014
lhumerus 33.0648 -10.1512 25.4631
lradius 62.6357
lwrist 59.6732
lhand 9.9693 -16.7569
lfingers 7.12502
lthumb 35.0972 9.77638
rfemur -109.275 36.6522 52.499
rtibia 150.226
rfoot -9.75172 -30.0539
rtoes -14.4515
lfemur -120.813 33.394 -25.964
ltibia 132.872
lfoot -29.9369 -26.3572
ltoes -35.2773
296
root 1.94076 4.61958 21.2295 -21.5036 -45.8648 20.9525
lowerback 43.055 -1.39094 0.00959098
upperback 10.3742 -1.88539 4.80795
thorax -8.60701 -1.30041 6.01835
lowerneck 19.2281 -9.77177 -30.0734
upperneck -17.2385 -16.0966 37.109
head -1.74832 -10.0228 19.3518
rclavicle 2.70347e-014 -7.95139e-015
rhumerus -17.1511 -24.9067 -66.1472
rradius 33.8528
rwrist 55.1039
rhand -65.2407 19.2755
rfingers 7.12502
rthumb -37.1254 -6.75648
lclavicle 2.70347e-014 -7.95139e-015
lhumerus 32.8335 -9.31989 25.7406
lradius 62.8374
lwrist 62.69
lhand 10.0545 -16.0537
lfingers 7.12502
lthumb 35.178 10.4606
rfemur -107.896 36.5331 53.5509
rtibia 149.786
rfoot -9.80008 -29.9845
rtoes -15.0842
lfemur -120.233 33.9587 -25.3655
ltibia 132.632
lfoot -29.6091 -26.6323
ltoes -34.5188
297
root 1.92271 4.57953 21.1573 -21.9945 -45.6697 20.5459
lowerback 43.6359 -1.39497 -0.197712
upperback 10.4103 -1.98233 4.80466
thorax -8.71937 -1.35251 6.18012
lowerneck 18.9395 -9.71988 -30.0237
upperneck -16.6284 -16.0485 36.9971
head -1.57592 -9.96641 19.2135
rclavicle 4.13472e-014 -6.83819e-014
rhumerus -17.1659 -24.7773 -66.7457
rradius 33.9936
rwrist 55.124
rhand -65.2471 20.1294
rfingers 7.12502
rthumb -37.1314 -5.90103
lclavicle 4.13472e-014 -6.83819e-014
lhumerus 32.6726 -8.55615 25.9477
lradius 62.9796
lwrist 65.3247
lhand 9.76635 -15.1492
lfingers 7.12502
lthumb 34.9047 11.429
rfemur -106.594 36.4785 54.5804
rtibia 149.379
rfoot -9.92897 -29.9316
rtoes -15.3683
lfemur -119.658 34.4983 -24.7218
ltibia 132.403
lfoot -29.24 -26.9013
ltoes -33.7171
298
root 1.90512 4.53676 21.0889 -22.4233 -45.4711 20.1025
lowerback 44.1446 -1.433 -0.29713
upperback 10.4435 -2.08093 4.75858
thorax -8.81281 -1.40331 6.23784
lowerneck 18.6688 -9.69773 -29.91
upperneck -16.0496 -16.023 36.929
head -1.40679 -9.9307 19.0872
rclavicle 7.31528e-014 1.74931e-014
rhumerus -17.267 -24.6533 -67.3414
rradius 34.1765
rwrist 55.075
rhand -65.2674 20.8426
rfingers 7.12502
rthumb -37.1506 -5.18277
lclavicle 7.31528e-014 1.74931e-014
lhumerus 32.6237 -7.89092 26.0695
lradius 63.0233
lwrist 67.3675
lhand 9.09079 -14.2154
lfingers 7.12502
lthumb 34.2635 12.5094
rfemur -105.483 36.5349 55.5282
rtibia 149.025
rfoot -10.1187 -29.9341
rtoes -15.2545
lfemur -119.168 34.9569 -24.0756
ltibia 132.202
lfoot -28.8557 -27.1375
ltoes -32.9759
